<svg width="334" height="59" viewBox="0 0 334 59" fill="none" xmlns="http://www.w3.org/2000/svg">
<g clip-path="url(#clip0_14_698)">
<path d="M44.986 46.3011L41.4139 21.9747C41.1503 20.1728 40.4111 18.4737 39.2723 17.0525C38.1336 15.6314 36.6365 14.5395 34.9354 13.8894L1.33296 1.04763C1.12086 0.970084 0.88865 0.967222 0.674696 1.0395C0.460741 1.11177 0.27784 1.25487 0.15621 1.44515C0.0345794 1.63543 -0.0185017 1.86149 0.00573047 2.08602C0.0299626 2.31055 0.130059 2.5201 0.289487 2.68005L44.986 46.3011Z" fill="#AAE2F4"/>
<path d="M22.9386 35.2075L12.4975 56.1026C12.3302 56.4358 12.2686 56.8122 12.3209 57.1813C12.3733 57.5505 12.5371 57.8948 12.7905 58.1684C13.0438 58.4419 13.3746 58.6316 13.7387 58.712C14.1028 58.7925 14.4827 58.7598 14.8277 58.6185L44.9861 46.3272L22.9386 35.2075Z" fill="#3FBCE8"/>
<path d="M22.9387 35.2071L26.434 28.1973L44.9861 46.3012L22.9387 35.2071Z" fill="#007CA8"/>
<path d="M100.111 17.7235C98.6008 17.7156 97.1041 18.0092 95.7086 18.5868C94.3131 19.1645 93.0468 20.0148 91.9839 21.0878C90.921 22.1608 90.0829 23.4351 89.5185 24.836C88.9541 26.2369 88.6747 27.7363 88.6969 29.2465C88.6969 35.821 93.6006 40.7695 100.111 40.7695C101.63 40.7994 103.138 40.5213 104.546 39.952C105.954 39.3827 107.232 38.5339 108.303 37.457C109.374 36.3801 110.216 35.0974 110.777 33.6862C111.339 32.2751 111.608 30.7648 111.57 29.2465C111.59 27.7332 111.307 26.2313 110.739 24.8285C110.171 23.4258 109.329 22.1506 108.262 21.0775C107.194 20.0044 105.924 19.155 104.524 18.5791C103.125 18.0031 101.624 17.7123 100.111 17.7235V17.7235ZM100.111 37.1718C95.7836 37.1718 92.5187 33.7725 92.5187 29.2657C92.5187 24.7589 95.7836 21.3532 100.111 21.3532C104.439 21.3532 107.742 24.7525 107.742 29.2657C107.742 33.7789 104.464 37.1718 100.111 37.1718Z" fill="white"/>
<path d="M125.539 27.3587C121.141 26.2512 119.617 25.7902 119.617 24.2923C119.617 22.5126 121.698 21.3539 124.918 21.3539C127.946 21.3539 129.777 22.3205 130.519 24.3051L130.583 24.4715H134.418L134.347 24.1578C133.438 20.0736 129.988 17.7241 124.866 17.7241C119.367 17.7241 115.814 20.4 115.814 24.5291C115.814 28.2869 118.631 29.4008 124.61 30.8924L125.391 31.0845C128.88 31.9423 130.801 32.4096 130.801 34.1957C130.801 35.9817 128.707 37.1724 125.462 37.1724C121.358 37.1724 119.361 36.0393 118.567 33.2546L118.516 33.069H114.675L114.733 33.3762C115.616 38.0239 119.63 40.8022 125.481 40.8022C131.076 40.8022 134.687 38.1007 134.687 33.9204C134.642 29.6185 131.018 28.7222 125.539 27.3587Z" fill="white"/>
<path d="M154.455 36.0964L154.18 36.1988C152.702 36.8126 151.13 37.1677 149.532 37.2487C145.569 37.2487 144.737 34.2143 144.737 31.6664V21.7502H154.48V18.1589H144.737V12.1797L140.954 13.0055V18.1589H136.773V21.7502H140.954V31.8264C140.954 37.4471 143.956 40.7888 148.981 40.7888C151.062 40.7719 153.111 40.2884 154.98 39.374L155.146 39.2844L154.455 36.0964Z" fill="white"/>
<path d="M179.646 30.2586C179.793 26.5136 178.66 23.2167 176.445 20.9121C175.416 19.8633 174.181 19.0378 172.819 18.4871C171.456 17.9364 169.995 17.6723 168.526 17.7113C161.951 17.7113 157.182 22.6022 157.182 29.3303C157.182 36.0585 161.971 40.7894 168.564 40.7894C173.5 40.7894 177.341 38.2287 179.095 33.7475L179.236 33.4018H175.312L175.235 33.5363C174.025 35.8921 171.695 37.1852 168.68 37.1852C164.435 37.1852 161.478 34.5669 161.074 30.4827H179.639L179.646 30.2586ZM161.305 26.9169C161.679 25.2882 162.606 23.8396 163.929 22.8182C165.252 21.7967 166.888 21.2656 168.558 21.3154C170.198 21.2641 171.802 21.8002 173.081 22.8273C174.361 23.8544 175.231 25.3047 175.536 26.9169H161.305Z" fill="white"/>
<path d="M196.514 17.8071C196.057 17.7527 195.598 17.7249 195.138 17.7239C193.604 17.6693 192.087 18.0528 190.764 18.8295C189.441 19.6061 188.367 20.7437 187.667 22.109V18.1592H183.903V40.3666H187.692V29.8551C187.692 24.6825 190.471 21.5905 195.125 21.5905C195.576 21.5913 196.027 21.6169 196.476 21.6673L196.764 21.6993V17.8583L196.514 17.8071Z" fill="white"/>
<path d="M225.021 17.7238C223.481 17.6765 221.962 18.0811 220.65 18.8877C219.338 19.6944 218.292 20.8677 217.639 22.2627C216.602 19.3307 214.202 17.7238 210.802 17.7238C209.424 17.6683 208.058 17.9946 206.854 18.6668C205.649 19.3389 204.654 20.3308 203.978 21.5329V18.1592H200.195V40.3666H203.978V28.9844C203.978 25.2971 205.508 21.3536 209.797 21.3536C212.915 21.3536 214.432 23.0757 214.432 26.6222V40.3666H218.273L218.228 28.9844C218.228 25.2971 219.771 21.3536 224.086 21.3536C227.204 21.3536 228.721 23.0757 228.721 26.6222V40.3666H232.511V26.014C232.498 20.7519 229.803 17.7238 225.021 17.7238Z" fill="#AAE2F4"/>
<path d="M253.489 18.1597L246.518 33.3381L239.661 18.1597H235.583L244.495 37.4671L238.618 50.2321H242.696L257.567 18.1597H253.489Z" fill="#AAE2F4"/>
<path d="M286.912 18.1597L284.844 25.1759L281.938 35.7067L279.064 25.1695L276.996 18.1597H272.591L270.524 25.1759L267.656 35.7451L264.749 25.1695L262.682 18.1597H258.873L265.358 40.1815L265.415 40.3671H269.743L271.971 32.8771L274.717 22.0711H274.909L277.662 32.8835L279.851 40.3671H284.179L290.619 18.4926L290.715 18.1597H286.912Z" fill="white"/>
<path d="M323.76 9.48486H319.97V40.3666H323.76V9.48486Z" fill="white"/>
<path d="M332.87 9.48486H329.08V40.3666H332.87V9.48486Z" fill="white"/>
<path d="M73.6465 17.7235C72.1362 17.7157 70.6395 18.0092 69.244 18.5869C67.8485 19.1646 66.5822 20.0148 65.5193 21.0878C64.4564 22.1609 63.6183 23.4351 63.0539 24.836C62.4895 26.2369 62.2101 27.7364 62.2323 29.2465C62.2323 29.381 62.2323 29.509 62.2323 29.6371V50.2056H66.0733V38.0169C68.1737 39.8418 70.8706 40.8326 73.6529 40.8016C75.1714 40.8315 76.6801 40.5534 78.0881 39.9841C79.4961 39.4147 80.7742 38.566 81.8451 37.4891C82.916 36.4122 83.7576 35.1294 84.3191 33.7183C84.8806 32.3071 85.1503 30.7968 85.1119 29.2786C85.1359 27.7621 84.8563 26.2561 84.2897 24.8493C83.7232 23.4424 82.881 22.163 81.8127 21.0864C80.7444 20.0098 79.4717 19.1577 78.0693 18.5802C76.6669 18.0026 75.1631 17.7114 73.6465 17.7235V17.7235ZM73.6465 37.1718C69.319 37.1718 66.0541 33.7725 66.0541 29.2657C66.0541 24.759 69.319 21.3533 73.6465 21.3533C77.9741 21.3533 81.2837 24.7334 81.2837 29.2657C81.2837 33.7981 77.9997 37.1718 73.6465 37.1718Z" fill="white"/>
<path d="M303.665 17.7236C302.155 17.7158 300.658 18.0092 299.262 18.5868C297.866 19.1644 296.599 20.0146 295.536 21.0875C294.473 22.1604 293.634 23.4347 293.069 24.8356C292.503 26.2366 292.223 27.7361 292.245 29.2466C292.245 35.8211 297.155 40.7696 303.665 40.7696C306.466 40.8008 309.182 39.8031 311.296 37.9657V40.3343H315.137V29.2658C315.159 27.7498 314.878 26.2447 314.311 24.8389C313.743 23.4332 312.9 22.155 311.831 21.0797C310.762 20.0044 309.489 19.1535 308.087 18.5772C306.685 18.0008 305.181 17.7106 303.665 17.7236V17.7236ZM303.665 37.1719C299.338 37.1719 296.073 33.7726 296.073 29.2658C296.073 24.759 299.338 21.3533 303.665 21.3533C307.993 21.3533 311.296 24.7334 311.296 29.2658C311.296 33.7982 308.018 37.1719 303.665 37.1719Z" fill="white"/>
</g>
<defs>
<clipPath id="clip0_14_698">
<rect width="332.87" height="57.7677" fill="white" transform="translate(0 0.987305)"/>
</clipPath>
</defs>
</svg>
