<svg width="335" height="58" viewBox="0 0 335 58" fill="none" xmlns="http://www.w3.org/2000/svg">
<g clip-path="url(#clip0_14_838)">
<path d="M45.486 45.4115L41.9139 21.0851C41.6503 19.2831 40.9111 17.5841 39.7723 16.1629C38.6336 14.7417 37.1365 13.6498 35.4354 12.9998L1.83296 0.157977C1.62086 0.0804356 1.38865 0.0775736 1.1747 0.14985C0.960741 0.222126 0.77784 0.365223 0.65621 0.555503C0.534579 0.745784 0.481498 0.971846 0.50573 1.19638C0.529963 1.4209 0.630059 1.63045 0.789487 1.7904L45.486 45.4115Z" fill="#AAE2F4"/>
<path d="M23.4386 34.3179L12.9975 55.213C12.8302 55.5462 12.7686 55.9225 12.8209 56.2917C12.8733 56.6608 13.0371 57.0052 13.2905 57.2787C13.5438 57.5523 13.8746 57.7419 14.2387 57.8224C14.6028 57.9028 14.9827 57.8702 15.3277 57.7288L45.4861 45.4376L23.4386 34.3179Z" fill="#3FBCE8"/>
<path d="M23.4387 34.3175L26.934 27.3076L45.4861 45.4116L23.4387 34.3175Z" fill="#007CA8"/>
<path d="M100.611 16.8338C99.1008 16.826 97.6041 17.1195 96.2086 17.6972C94.8131 18.2749 93.5468 19.1251 92.4839 20.1981C91.421 21.2712 90.5829 22.5454 90.0185 23.9463C89.4541 25.3472 89.1747 26.8467 89.1969 28.3568C89.1969 34.9314 94.1006 39.8799 100.611 39.8799C102.13 39.9098 103.638 39.6317 105.046 39.0624C106.454 38.493 107.732 37.6443 108.803 36.5674C109.874 35.4905 110.716 34.2077 111.277 32.7966C111.839 31.3854 112.108 29.8751 112.07 28.3568C112.09 26.8436 111.807 25.3416 111.239 23.9389C110.671 22.5362 109.829 21.2609 108.762 20.1878C107.694 19.1147 106.424 18.2653 105.024 17.6894C103.625 17.1135 102.124 16.8226 100.611 16.8338V16.8338ZM100.611 36.2821C96.2836 36.2821 93.0187 32.8828 93.0187 28.376C93.0187 23.8693 96.2836 20.4636 100.611 20.4636C104.939 20.4636 108.242 23.8629 108.242 28.376C108.242 32.8892 104.964 36.2821 100.611 36.2821Z" fill="white"/>
<path d="M126.039 26.469C121.641 25.3615 120.117 24.9006 120.117 23.4026C120.117 21.6229 122.198 20.4642 125.418 20.4642C128.446 20.4642 130.277 21.4309 131.019 23.4154L131.083 23.5819H134.918L134.847 23.2682C133.938 19.1839 130.488 16.8345 125.366 16.8345C119.867 16.8345 116.314 19.5104 116.314 23.6395C116.314 27.3973 119.131 28.5111 125.11 30.0027L125.891 30.1948C129.38 31.0526 131.301 31.5199 131.301 33.306C131.301 35.0921 129.207 36.2828 125.962 36.2828C121.858 36.2828 119.861 35.1497 119.067 32.365L119.016 32.1793H115.175L115.233 32.4866C116.116 37.1342 120.13 39.9125 125.981 39.9125C131.576 39.9125 135.187 37.211 135.187 33.0307C135.142 28.7288 131.518 27.8326 126.039 26.469Z" fill="white"/>
<path d="M154.955 35.2067L154.68 35.3092C153.202 35.9229 151.63 36.2781 150.032 36.359C146.069 36.359 145.237 33.3246 145.237 30.7767V20.8605H154.98V17.2692H145.237V11.29L141.454 12.1158V17.2692H137.273V20.8605H141.454V30.9368C141.454 36.5575 144.456 39.8992 149.481 39.8992C151.562 39.8822 153.611 39.3987 155.48 38.4844L155.646 38.3948L154.955 35.2067Z" fill="white"/>
<path d="M180.146 29.3689C180.293 25.624 179.16 22.3271 176.945 20.0225C175.916 18.9736 174.681 18.1481 173.319 17.5974C171.956 17.0467 170.495 16.7826 169.026 16.8216C162.451 16.8216 157.682 21.7125 157.682 28.4407C157.682 35.1689 162.471 39.8997 169.064 39.8997C174 39.8997 177.841 37.339 179.595 32.8579L179.736 32.5122H175.812L175.735 32.6466C174.525 35.0024 172.195 36.2956 169.18 36.2956C164.935 36.2956 161.978 33.6773 161.574 29.593H180.139L180.146 29.3689ZM161.805 26.0273C162.179 24.3985 163.106 22.95 164.429 21.9285C165.752 20.9071 167.388 20.376 169.058 20.4258C170.698 20.3744 172.302 20.9106 173.581 21.9377C174.861 22.9647 175.731 24.4151 176.036 26.0273H161.805Z" fill="white"/>
<path d="M197.014 16.9174C196.557 16.863 196.098 16.8352 195.638 16.8342C194.104 16.7797 192.587 17.1632 191.264 17.9398C189.941 18.7164 188.867 19.8541 188.167 21.2194V17.2695H184.403V39.477H188.192V28.9654C188.192 23.7928 190.971 20.7008 195.625 20.7008C196.076 20.7016 196.527 20.7273 196.976 20.7776L197.264 20.8097V16.9687L197.014 16.9174Z" fill="white"/>
<path d="M225.521 16.8342C223.981 16.7868 222.462 17.1914 221.15 17.9981C219.838 18.8047 218.792 19.978 218.139 21.373C217.102 18.441 214.702 16.8342 211.302 16.8342C209.924 16.7786 208.558 17.105 207.354 17.7771C206.149 18.4493 205.154 19.4412 204.478 20.6432V17.2695H200.695V39.477H204.478V28.0948C204.478 24.4074 206.008 20.464 210.297 20.464C213.415 20.464 214.932 22.186 214.932 25.7326V39.477H218.773L218.728 28.0948C218.728 24.4074 220.271 20.464 224.586 20.464C227.704 20.464 229.221 22.186 229.221 25.7326V39.477H233.011V25.1244C232.998 19.8622 230.303 16.8342 225.521 16.8342Z" fill="#AAE2F4"/>
<path d="M253.989 17.27L247.018 32.4484L240.161 17.27H236.083L244.995 36.5775L239.118 49.3425H243.196L258.067 17.27H253.989Z" fill="#AAE2F4"/>
<path d="M287.412 17.27L285.344 24.2863L282.438 34.817L279.564 24.2799L277.496 17.27H273.091L271.024 24.2863L268.156 34.8554L265.249 24.2799L263.182 17.27H259.373L265.858 39.2918L265.915 39.4775H270.243L272.471 31.9875L275.217 21.1814H275.409L278.162 31.9939L280.351 39.4775H284.679L291.119 17.6029L291.215 17.27H287.412Z" fill="white"/>
<path d="M324.26 8.59521H320.47V39.4769H324.26V8.59521Z" fill="white"/>
<path d="M333.37 8.59521H329.58V39.4769H333.37V8.59521Z" fill="white"/>
<path d="M74.1465 16.8339C72.6362 16.826 71.1395 17.1196 69.744 17.6972C68.3485 18.2749 67.0822 19.1252 66.0193 20.1982C64.9564 21.2712 64.1183 22.5455 63.5539 23.9464C62.9895 25.3473 62.7101 26.8467 62.7323 28.3569C62.7323 28.4913 62.7323 28.6194 62.7323 28.7474V49.316H66.5733V37.1272C68.6737 38.9521 71.3706 39.943 74.1529 39.9119C75.6714 39.9418 77.1801 39.6637 78.5881 39.0944C79.9961 38.5251 81.2742 37.6763 82.3451 36.5994C83.416 35.5225 84.2576 34.2398 84.8191 32.8286C85.3806 31.4175 85.6503 29.9072 85.6119 28.3889C85.6359 26.8724 85.3563 25.3665 84.7897 23.9596C84.2232 22.5527 83.381 21.2734 82.3127 20.1968C81.2444 19.1202 79.9717 18.268 78.5693 17.6905C77.1669 17.113 75.6631 16.8217 74.1465 16.8339V16.8339ZM74.1465 36.2822C69.819 36.2822 66.5541 32.8829 66.5541 28.3761C66.5541 23.8693 69.819 20.4636 74.1465 20.4636C78.4741 20.4636 81.7837 23.8437 81.7837 28.3761C81.7837 32.9085 78.4997 36.2822 74.1465 36.2822Z" fill="white"/>
<path d="M304.165 16.8339C302.655 16.8261 301.158 17.1196 299.762 17.6972C298.366 18.2748 297.099 19.1249 296.036 20.1979C294.973 21.2708 294.134 22.545 293.569 23.946C293.003 25.3469 292.723 26.8465 292.745 28.3569C292.745 34.9315 297.655 39.88 304.165 39.88C306.966 39.9111 309.682 38.9134 311.796 37.076V39.4447H315.637V28.3761C315.659 26.8602 315.378 25.3551 314.811 23.9493C314.243 22.5435 313.4 21.2654 312.331 20.19C311.262 19.1147 309.989 18.2639 308.587 17.6875C307.185 17.1112 305.681 16.821 304.165 16.8339V16.8339ZM304.165 36.2822C299.838 36.2822 296.573 32.8829 296.573 28.3761C296.573 23.8694 299.838 20.4637 304.165 20.4637C308.493 20.4637 311.796 23.8438 311.796 28.3761C311.796 32.9085 308.518 36.2822 304.165 36.2822Z" fill="white"/>
</g>
<defs>
<clipPath id="clip0_14_838">
<rect width="332.87" height="57.7677" fill="white" transform="translate(0.5 0.0976562)"/>
</clipPath>
</defs>
</svg>
